<?xml version="1.0" standalone="no"?>
<!DOCTYPE svg PUBLIC "-//W3C//DTD SVG 20010904//EN"
 "http://www.w3.org/TR/2001/REC-SVG-20010904/DTD/svg10.dtd">
<svg version="1.0" xmlns="http://www.w3.org/2000/svg"
 width="512.000000pt" height="512.000000pt" viewBox="0 0 512.000000 512.000000"
 preserveAspectRatio="xMidYMid meet">

<g transform="translate(0.000000,512.000000) scale(0.100000,-0.100000)"
fill="#000000" stroke="none">
<path d="M2297 4896 c-77 -28 -112 -81 -105 -161 5 -61 33 -106 82 -129 31
-14 134 -16 1053 -16 l1019 0 44 -22 c59 -31 82 -66 87 -130 5 -61 -16 -109
-61 -143 -27 -20 -39 -20 -864 -20 -910 0 -921 -1 -1244 -60 -322 -60 -532
-129 -768 -252 -414 -216 -693 -491 -870 -858 -81 -168 -127 -313 -162 -505
-20 -113 -17 -440 6 -565 31 -173 103 -376 184 -520 97 -172 278 -375 447
-503 120 -90 154 -106 216 -100 85 9 139 71 139 161 0 61 -29 100 -119 162
-101 68 -239 201 -317 304 -35 47 -64 90 -64 95 0 4 12 6 28 2 15 -3 70 -11
122 -17 90 -11 97 -11 138 10 77 39 109 126 74 204 -29 65 -66 87 -177 102
-52 8 -120 21 -151 30 -86 25 -193 75 -198 94 -14 44 -26 168 -26 276 0 190
35 370 107 545 34 84 114 233 120 226 2 -2 15 -45 29 -96 35 -131 101 -283
140 -321 74 -71 202 -50 249 41 26 50 18 107 -26 210 -52 119 -85 247 -100
387 l-11 107 33 29 c146 123 422 274 625 343 98 32 297 80 442 104 226 39 414
50 837 49 467 -1 573 -7 588 -30 18 -28 -103 -420 -169 -551 -64 -125 6 -253
138 -251 91 1 137 56 216 258 51 129 142 460 142 516 l0 49 113 0 c173 0 277
38 377 139 62 61 111 152 129 239 50 239 -86 476 -319 555 l-65 22 -1035 2
c-859 2 -1041 0 -1073 -11z"/>
<path d="M2751 3818 c-60 -32 -83 -77 -79 -148 5 -65 26 -99 81 -131 49 -27
120 -23 167 11 35 25 70 90 70 130 0 40 -35 105 -70 130 -48 34 -114 37 -169
8z"/>
<path d="M1937 3375 c-48 -33 -67 -72 -67 -136 0 -92 76 -283 154 -388 l26
-35 -83 -23 c-45 -13 -125 -44 -177 -70 -77 -38 -109 -61 -176 -128 -68 -67
-90 -98 -127 -176 -59 -122 -82 -230 -74 -354 7 -106 43 -238 91 -333 164
-326 603 -599 1131 -702 120 -24 146 -40 138 -85 -4 -17 -14 -28 -32 -33 -46
-13 -342 -5 -503 13 -154 18 -156 18 -194 -2 -76 -39 -109 -121 -79 -199 33
-88 105 -113 372 -130 l101 -7 48 -69 c67 -98 173 -208 273 -283 346 -261 704
-243 826 40 25 59 31 204 11 290 -20 85 -87 227 -150 319 l-47 68 19 22 c43
46 122 181 151 254 80 208 62 375 -55 501 -136 147 -341 160 -589 37 -157 -78
-264 -167 -409 -341 l-25 -30 -83 28 c-276 95 -529 280 -612 449 -142 287 -34
535 267 612 146 38 313 42 492 11 141 -24 198 -27 325 -15 207 19 401 78 565
173 84 48 102 63 122 101 48 92 -17 216 -121 231 -47 7 -78 -4 -181 -63 -81
-46 -177 -80 -291 -103 -98 -20 -118 -21 -244 -11 -159 13 -221 32 -308 96
-115 85 -191 197 -228 336 -30 112 -81 160 -171 160 -35 0 -58 -7 -86 -25z
m1348 -1865 c41 -45 -10 -195 -112 -328 -49 -64 -89 -101 -98 -90 -1 2 -13 23
-25 47 -28 56 -104 131 -158 155 -23 11 -42 23 -42 27 0 14 149 128 204 156
108 56 199 68 231 33z m-50 -903 c32 -65 48 -109 52 -149 8 -80 -4 -92 -80
-85 -77 7 -182 58 -277 134 -111 89 -111 87 -48 116 69 32 139 94 169 152 l24
47 56 -61 c35 -38 75 -97 104 -154z"/>
</g>
</svg>
